# xmcd CD Database Entry
#
# Track frame offsets:
# 150
# 16735
# 32385
# 47639
# 48943
# 50040
# 52080
# 53558
# 55632
# 58035
# 60476
# 63535
# 64512
# 65613
# 67209
# 69356
# 71004
# 73372
# 74831
# 75991
# 77509
# 78499
# 80520
# 82295
# 84620
# 87297
# 90022
# 91641
# 92788
# 93968
# 95738
# 97870
# 100309
# 102476
# 104850
# 106474
# 108039
# 113143
# 117913
# 119044
# 120190
# 124850
# 128021
# 131232
# 134421
# 137694
# 141171
# 144438
# 147570
# 150861
# 154179
# 157323
# 160589
# 163720
#
# Disc length: 2225 seconds
#
# Revision: 2
# Processed by: cddbd v1.5.2PL0 Copyright (c) Steve Scherf et al.
# Submitted via: tcd 2.0b
#
DISCID=fb08af36
DTITLE=未知 - 未知
DYEAR=1900
DGENRE=
TTITLE0=トラック 1
TTITLE1=トラック 2
TTITLE2=トラック 3
TTITLE3=トラック 4
TTITLE4=トラック 5
TTITLE5=トラック 6
TTITLE6=トラック 7
TTITLE7=トラック 8
TTITLE8=トラック 9
TTITLE9=トラック 10
TTITLE10=トラック 11
TTITLE11=トラック 12
TTITLE12=トラック 13
TTITLE13=トラック 14
TTITLE14=トラック 15
TTITLE15=トラック 16
TTITLE16=トラック 17
TTITLE17=トラック 18
TTITLE18=トラック 19
TTITLE19=トラック 20
TTITLE20=トラック 21
TTITLE21=トラック 22
TTITLE22=トラック 23
TTITLE23=トラック 24
TTITLE24=トラック 25
TTITLE25=トラック 26
TTITLE26=トラック 27
TTITLE27=トラック 28
TTITLE28=トラック 29
TTITLE29=トラック 30
TTITLE30=トラック 31
TTITLE31=トラック 32
TTITLE32=トラック 33
TTITLE33=トラック 34
TTITLE34=トラック 35
TTITLE35=トラック 36
TTITLE36=トラック 37
TTITLE37=トラック 38
TTITLE38=トラック 39
TTITLE39=トラック 40
TTITLE40=トラック 41
TTITLE41=トラック 42
TTITLE42=トラック 43
TTITLE43=トラック 44
TTITLE44=トラック 45
TTITLE45=トラック 46
TTITLE46=トラック 47
TTITLE47=トラック 48
TTITLE48=トラック 49
TTITLE49=トラック 50
TTITLE50=トラック 51
TTITLE51=トラック 52
TTITLE52=トラック 53
TTITLE53=トラック 54
EXTD=
EXTT0=
EXTT1=
EXTT2=
EXTT3=
EXTT4=
EXTT5=
EXTT6=
EXTT7=
EXTT8=
EXTT9=
EXTT10=
EXTT11=
EXTT12=
EXTT13=
EXTT14=
EXTT15=
EXTT16=
EXTT17=
EXTT18=
EXTT19=
EXTT20=
EXTT21=
EXTT22=
EXTT23=
EXTT24=
EXTT25=
EXTT26=
EXTT27=
EXTT28=
EXTT29=
EXTT30=
EXTT31=
EXTT32=
EXTT33=
EXTT34=
EXTT35=
EXTT36=
EXTT37=
EXTT38=
EXTT39=
EXTT40=
EXTT41=
EXTT42=
EXTT43=
EXTT44=
EXTT45=
EXTT46=
EXTT47=
EXTT48=
EXTT49=
EXTT50=
EXTT51=
EXTT52=
EXTT53=
PLAYORDER=
